<svg width="22" height="22" viewBox="0 0 22 22" fill="none" xmlns="http://www.w3.org/2000/svg">
<path fill-rule="evenodd" clip-rule="evenodd" d="M5.71463 0H15.6719C19.3418 0 21.3853 1.90374 21.3853 5.16578V16.2139C21.3853 19.5294 19.3418 21.3904 15.6719 21.3904H5.71463C2.10289 21.3904 0 19.5294 0 16.2139V5.16578C0 1.90374 2.10289 0 5.71463 0ZM6.03541 4.98396V4.97326H9.58657C10.0986 4.97326 10.5145 5.34759 10.5145 5.80642C10.5145 6.27808 10.0986 6.65241 9.58657 6.65241H6.03541C5.52335 6.65241 5.10872 6.27808 5.10872 5.81818C5.10872 5.35829 5.52335 4.98396 6.03541 4.98396ZM6.03541 11.4866H15.3499C15.8608 11.4866 16.2766 11.1123 16.2766 10.6524C16.2766 10.1925 15.8608 9.81711 15.3499 9.81711H6.03541C5.52335 9.81711 5.10872 10.1925 5.10872 10.6524C5.10872 11.1123 5.52335 11.4866 6.03541 11.4866ZM6.03541 16.3743H15.3499C15.8239 16.3316 16.1816 15.9668 16.1816 15.5401C16.1816 15.1016 15.8239 14.738 15.3499 14.6952H6.03541C5.67899 14.6631 5.33445 14.8128 5.14436 15.0909C4.95427 15.3583 4.95427 15.7112 5.14436 15.9893C5.33445 16.2567 5.67899 16.4171 6.03541 16.3743Z" fill="#8A8A96"/>
</svg>
