<svg width="20" height="20" viewBox="0 0 20 20" fill="none" xmlns="http://www.w3.org/2000/svg">
<path d="M10.2324 0C10.9898 0 11.676 0.420039 12.0547 1.04004C12.2388 1.3399 12.3616 1.70983 12.3311 2.09961C12.3106 2.39961 12.4026 2.70047 12.5664 2.98047C13.0885 3.83012 14.245 4.14984 15.1455 3.66992C16.1587 3.09008 17.4381 3.43988 18.0215 4.42969L18.707 5.61035C19.3004 6.60026 18.9735 7.87043 17.9502 8.44043C17.0802 8.95043 16.7729 10.0804 17.2949 10.9404C17.4586 11.2102 17.6433 11.4402 17.9297 11.5801C18.2877 11.7701 18.5634 12.0703 18.7578 12.3701C19.1365 12.99 19.1066 13.75 18.7383 14.4199L18.0215 15.6201C17.6428 16.26 16.9366 16.6601 16.21 16.6602C15.8518 16.6602 15.4525 16.5603 15.125 16.3604C14.859 16.1904 14.552 16.1299 14.2246 16.1299C13.2113 16.1299 12.3618 16.9602 12.3311 17.9502C12.3309 19.1001 11.3889 20 10.2119 20H8.82031C7.63312 20 6.69151 19.1001 6.69141 17.9502C6.67094 16.9602 5.82088 16.1299 4.80762 16.1299C4.47002 16.1299 4.163 16.1904 3.90723 16.3604C3.57975 16.5603 3.17017 16.6602 2.82227 16.6602C2.08551 16.6601 1.37968 16.2599 1.00098 15.6201L0.293945 14.4199C-0.0846039 13.77 -0.10423 12.99 0.274414 12.3701C0.438189 12.0702 0.744828 11.7701 1.09277 11.5801C1.37921 11.4401 1.56339 11.2103 1.7373 10.9404C2.24902 10.0805 1.94209 8.95048 1.07227 8.44043C0.0591552 7.87051 -0.26858 6.60029 0.314453 5.61035L1.00098 4.42969C1.59467 3.44003 2.86338 3.09012 3.88672 3.66992C4.77707 4.14987 5.934 3.83028 6.45605 2.98047C6.61981 2.70047 6.71188 2.39961 6.69141 2.09961C6.67103 1.70982 6.7832 1.33991 6.97754 1.04004C7.35617 0.420141 8.04205 0.0201213 8.78906 0H10.2324ZM9.52637 7.17969C7.91953 7.17969 6.61923 8.43984 6.61914 10.0098C6.61914 11.5798 7.91948 12.8301 9.52637 12.8301C11.1331 12.8299 12.4023 11.5796 12.4023 10.0098C12.4023 8.43996 11.133 7.17988 9.52637 7.17969Z" fill="#747474"/>
</svg>
