<svg width="24" height="18" viewBox="0 0 24 18" fill="none" xmlns="http://www.w3.org/2000/svg">
<path fill-rule="evenodd" clip-rule="evenodd" d="M23.5087 6.99364C23.3478 7.13431 23.1295 7.2147 22.8997 7.2147C22.0494 7.2147 21.36 7.8176 21.36 8.55113C21.36 9.28968 22.0414 9.88956 22.8836 9.8976C23.3582 9.90162 23.7615 10.191 23.7615 10.606V13.1834C23.7615 15.3528 21.7507 17.1123 19.2689 17.1123H15.5231C15.1359 17.1123 14.8222 16.838 14.8222 16.4994V14.3289C14.8222 13.9069 14.443 13.5753 13.9604 13.5753C13.4893 13.5753 13.0987 13.9069 13.0987 14.3289V16.4994C13.0987 16.838 12.785 17.1123 12.3989 17.1123H4.49262C2.02225 17.1123 0 15.3538 0 13.1834V10.606C0 10.191 0.403302 9.90162 0.877841 9.8976C1.72121 9.88956 2.40143 9.28968 2.40143 8.55113C2.40143 7.83769 1.735 7.29509 0.861755 7.29509C0.631954 7.29509 0.413643 7.2147 0.252782 7.07402C0.0919206 6.93335 0 6.74243 0 6.54146V3.93894C0 1.77252 2.02685 0 4.50411 0H12.3989C12.785 0 13.0987 0.274319 13.0987 0.612948V3.18532C13.0987 3.5973 13.4893 3.93894 13.9604 3.93894C14.443 3.93894 14.8222 3.5973 14.8222 3.18532V0.612948C14.8222 0.274319 15.1359 0 15.5231 0H19.2689C21.7507 0 23.7615 1.75846 23.7615 3.9289V6.46107C23.7615 6.66204 23.6695 6.85296 23.5087 6.99364ZM13.9617 11.6259C14.4443 11.6259 14.8235 11.2843 14.8235 10.8723V6.85299C14.8235 6.44101 14.4443 6.09937 13.9617 6.09937C13.4906 6.09937 13.0999 6.44101 13.0999 6.85299V10.8723C13.0999 11.2843 13.4906 11.6259 13.9617 11.6259Z" fill="black" fill-opacity="0.5"/>
</svg>
